<svg width="101" height="62" viewBox="0 0 101 62" fill="none" xmlns="http://www.w3.org/2000/svg">
<path d="M100.207 30.025L83.897 1.7789C83.4993 1.08296 82.7481 0.652143 81.9473 0.652143H49.3322C48.5314 0.652143 47.7802 1.08296 47.3825 1.7789L33.3699 26.0482C33.149 26.4349 32.6685 26.6282 32.2432 26.5122C31.8068 26.3962 31.5031 25.9985 31.5031 25.5456V16.1505C31.5031 7.60598 24.5492 0.652143 16.0047 0.652143H2.75433C1.51159 0.652143 0.500832 1.66291 0.500832 2.90566V16.1505C0.500832 22.3311 4.17934 27.8544 9.87938 30.2294C10.255 30.384 10.4925 30.743 10.498 31.1518C10.498 31.555 10.255 31.9195 9.87938 32.0741C4.18486 34.4436 0.500832 39.9725 0.500832 46.153V59.3979C0.500832 60.6406 1.51159 61.6514 2.75433 61.6514H15.9992C24.5437 61.6514 31.4975 54.6976 31.4975 46.153V36.7579C31.4975 36.305 31.8013 35.9073 32.2377 35.7913C32.663 35.6753 33.1435 35.8742 33.3644 36.2553L47.377 60.5246C47.7802 61.2205 48.5258 61.6514 49.3267 61.6514H81.9417C82.7426 61.6514 83.4938 61.2205 83.8915 60.5246L100.202 32.2785C100.401 31.9306 100.5 31.5494 100.5 31.1573C100.511 30.7651 100.412 30.373 100.207 30.025ZM65.8855 42.9992C59.5227 42.9992 54.3474 37.6858 54.3474 31.1518C54.3474 24.6177 59.5227 19.3043 65.8855 19.3043C72.2484 19.3043 77.4237 24.6177 77.4237 31.1518C77.4292 37.6858 72.2484 42.9992 65.8855 42.9992Z" fill="white"/>
</svg>
