<svg width="22" height="31" viewBox="0 0 22 31" fill="none" xmlns="http://www.w3.org/2000/svg">
<path d="M17.5749 10.7256C20.2605 9.6411 22 7.90652 22 5.95299C22 2.66516 17.0731 0 11 0C4.92694 0 0 2.66516 0 5.95299C0 7.90652 1.73952 9.6411 4.42509 10.7256C6.25956 9.98322 8.53483 9.5453 11 9.5453C13.4652 9.5453 15.7404 9.98665 17.5749 10.7256Z" fill="url(#paint0_linear)"/>
<path d="M22 15.4984C22 13.5448 20.2605 11.8102 17.5749 10.7257C15.7404 11.4681 13.4652 11.906 11 11.906C8.53483 11.906 6.25956 11.4681 4.42509 10.7257C1.73952 11.8137 0 13.5448 0 15.4984C0 17.4519 1.73952 19.1865 4.42509 20.271C6.25956 19.5286 8.53483 19.0907 11 19.0907C13.4652 19.0907 15.7404 19.5286 17.5749 20.271C20.2605 19.1865 22 17.4553 22 15.4984Z" fill="url(#paint1_linear)"/>
<path d="M11 11.906C14.6312 11.906 17.5749 11.3775 17.5749 10.7256C17.5749 10.0737 14.6312 9.54529 11 9.54529C7.36873 9.54529 4.42505 10.0737 4.42505 10.7256C4.42505 11.3775 7.36873 11.906 11 11.906Z" fill="url(#paint2_linear)"/>
<path d="M11 11.906C14.6312 11.906 17.5749 11.3775 17.5749 10.7256C17.5749 10.0737 14.6312 9.54529 11 9.54529C7.36873 9.54529 4.42505 10.0737 4.42505 10.7256C4.42505 11.3775 7.36873 11.906 11 11.906Z" fill="#E59739"/>
<path d="M4.42509 20.2743C1.73952 21.3588 0 23.0934 0 25.0469C0 28.3348 4.92355 30.9999 11 30.9999C17.0764 30.9999 22 28.3348 22 25.0469C22 23.0934 20.2605 21.3588 17.5749 20.2743C15.7404 21.0167 13.4652 21.4546 11 21.4546C8.53483 21.4546 6.25956 21.0133 4.42509 20.2743Z" fill="url(#paint3_linear)"/>
<path d="M11 21.4547C14.6312 21.4547 17.5749 20.9262 17.5749 20.2743C17.5749 19.6224 14.6312 19.094 11 19.094C7.36873 19.094 4.42505 19.6224 4.42505 20.2743C4.42505 20.9262 7.36873 21.4547 11 21.4547Z" fill="url(#paint4_linear)"/>
<path d="M11 21.4547C14.6312 21.4547 17.5749 20.9262 17.5749 20.2743C17.5749 19.6224 14.6312 19.094 11 19.094C7.36873 19.094 4.42505 19.6224 4.42505 20.2743C4.42505 20.9262 7.36873 21.4547 11 21.4547Z" fill="#0056D3"/>
<defs>
<linearGradient id="paint0_linear" x1="10.9993" y1="0.478668" x2="10.9993" y2="13.0471" gradientUnits="userSpaceOnUse">
<stop stop-color="#FFCD85"/>
<stop offset="1" stop-color="#FCBC68"/>
</linearGradient>
<linearGradient id="paint1_linear" x1="10.9993" y1="21.7485" x2="10.9993" y2="10.4171" gradientUnits="userSpaceOnUse">
<stop stop-color="#2C72FF"/>
<stop offset="1" stop-color="#0062FF"/>
</linearGradient>
<linearGradient id="paint2_linear" x1="10.9992" y1="-0.403848" x2="10.9992" y2="12.1646" gradientUnits="userSpaceOnUse">
<stop stop-color="#FFEC1F"/>
<stop offset="1" stop-color="#EACE00"/>
</linearGradient>
<linearGradient id="paint3_linear" x1="10.9993" y1="18.874" x2="10.9993" y2="30.8017" gradientUnits="userSpaceOnUse">
<stop stop-color="#1D0070"/>
<stop offset="1" stop-color="#130059"/>
</linearGradient>
<linearGradient id="paint4_linear" x1="10.9992" y1="21.7484" x2="10.9992" y2="10.417" gradientUnits="userSpaceOnUse">
<stop stop-color="#FFC2E8"/>
<stop offset="1" stop-color="#F47FCD"/>
</linearGradient>
</defs>
</svg>
