<svg width="22" height="31" viewBox="0 0 22 31" fill="none" xmlns="http://www.w3.org/2000/svg">
<path d="M11.0005 0L20.1124 8.77267C21.9228 10.5154 22.5192 13.1746 21.5135 15.4568L21.4958 15.4983C19.7313 11.5321 15.6976 8.75884 11.0005 8.75884C6.30332 8.75884 2.26963 11.5321 0.505117 15.4983C0.498059 15.4844 0.49453 15.4706 0.487472 15.4568C-0.518302 13.1746 0.0816333 10.5154 1.8885 8.77267L11.0005 0Z" fill="url(#paint0_linear)"/>
<path d="M11 22.2377C15.6972 22.2377 19.7308 19.4645 21.4954 15.4983C21.5024 15.5121 21.5059 15.526 21.513 15.5398C22.5188 17.822 21.9188 20.4811 20.112 22.2239L11 31L1.88804 22.2239C0.077644 20.4811 -0.518763 17.822 0.487012 15.5398L0.504657 15.4983C2.26917 19.4645 6.30286 22.2377 11 22.2377Z" fill="url(#paint1_linear)"/>
<path d="M11 8.75879C15.6971 8.75879 19.7308 11.532 21.4953 15.4982C19.7308 19.4644 15.6971 22.2377 11 22.2377C6.30284 22.2377 2.26916 19.4644 0.504639 15.4982C2.26916 11.5355 6.30284 8.75879 11 8.75879Z" fill="url(#paint2_linear)"/>
<path d="M11 8.75879C15.6971 8.75879 19.7308 11.532 21.4953 15.4982C19.7308 19.4644 15.6971 22.2377 11 22.2377C6.30284 22.2377 2.26916 19.4644 0.504639 15.4982C2.26916 11.5355 6.30284 8.75879 11 8.75879Z" fill="url(#paint3_linear)"/>
<defs>
<linearGradient id="paint0_linear" x1="10.8679" y1="21.8769" x2="11.1687" y2="1.22841" gradientUnits="userSpaceOnUse">
<stop stop-color="#FFCD85"/>
<stop offset="1" stop-color="#FCBC68"/>
</linearGradient>
<linearGradient id="paint1_linear" x1="10.8674" y1="9.12266" x2="11.1683" y2="29.7711" gradientUnits="userSpaceOnUse">
<stop stop-color="#2C72FF"/>
<stop offset="1" stop-color="#0062FF"/>
</linearGradient>
<linearGradient id="paint2_linear" x1="10.9021" y1="21.9437" x2="11.2061" y2="1.0752" gradientUnits="userSpaceOnUse">
<stop stop-color="#2C72FF"/>
<stop offset="1" stop-color="#0062FF"/>
</linearGradient>
<linearGradient id="paint3_linear" x1="10.9021" y1="9.05575" x2="11.2061" y2="29.9242" gradientUnits="userSpaceOnUse">
<stop stop-color="#1D0070"/>
<stop offset="1" stop-color="#130059"/>
</linearGradient>
</defs>
</svg>
