<svg width="20" height="20" viewBox="0 0 20 20" fill="none" xmlns="http://www.w3.org/2000/svg">
<path d="M14.8419 3.72496C14.7752 3.72496 14.7085 3.70829 14.6502 3.67496C13.0502 2.84996 11.6669 2.49996 10.0085 2.49996C8.35852 2.49996 6.79186 2.89163 5.36686 3.67496C5.16686 3.78329 4.91686 3.70829 4.80019 3.50829C4.69186 3.30829 4.76686 3.04996 4.96686 2.94163C6.51686 2.09996 8.21686 1.66663 10.0085 1.66663C11.7835 1.66663 13.3335 2.05829 15.0335 2.93329C15.2419 3.04163 15.3169 3.29163 15.2085 3.49163C15.1335 3.64163 14.9919 3.72496 14.8419 3.72496ZM2.91686 8.09996C2.83352 8.09996 2.75019 8.07496 2.67519 8.02496C2.48352 7.89163 2.44186 7.63329 2.57519 7.44163C3.40019 6.27496 4.45019 5.35829 5.70019 4.71663C8.31686 3.36663 11.6669 3.35829 14.2919 4.70829C15.5419 5.34996 16.5919 6.25829 17.4169 7.41663C17.5502 7.59996 17.5085 7.86663 17.3169 7.99996C17.1252 8.13329 16.8669 8.09163 16.7335 7.89996C15.9835 6.84996 15.0335 6.02496 13.9085 5.44996C11.5169 4.22496 8.45852 4.22496 6.07519 5.45829C4.94186 6.04163 3.99186 6.87496 3.24186 7.92496C3.17519 8.04163 3.05019 8.09996 2.91686 8.09996ZM8.12519 18.1583C8.01686 18.1583 7.90852 18.1166 7.83352 18.0333C7.10852 17.3083 6.71686 16.8416 6.15852 15.8333C5.58352 14.8083 5.28352 13.5583 5.28352 12.2166C5.28352 9.74163 7.40019 7.72496 10.0002 7.72496C12.6002 7.72496 14.7169 9.74163 14.7169 12.2166C14.7169 12.45 14.5335 12.6333 14.3002 12.6333C14.0669 12.6333 13.8835 12.45 13.8835 12.2166C13.8835 10.2 12.1419 8.55829 10.0002 8.55829C7.85852 8.55829 6.11686 10.2 6.11686 12.2166C6.11686 13.4166 6.38353 14.525 6.89186 15.425C7.42519 16.3833 7.79186 16.7916 8.43352 17.4416C8.59186 17.6083 8.59186 17.8666 8.43352 18.0333C8.34186 18.1166 8.23352 18.1583 8.12519 18.1583ZM14.1002 16.6166C13.1085 16.6166 12.2335 16.3666 11.5169 15.875C10.2752 15.0333 9.53352 13.6666 9.53352 12.2166C9.53352 11.9833 9.71686 11.8 9.95019 11.8C10.1835 11.8 10.3669 11.9833 10.3669 12.2166C10.3669 13.3916 10.9669 14.5 11.9835 15.1833C12.5752 15.5833 13.2669 15.775 14.1002 15.775C14.3002 15.775 14.6335 15.75 14.9669 15.6916C15.1919 15.65 15.4085 15.8 15.4502 16.0333C15.4919 16.2583 15.3419 16.475 15.1085 16.5166C14.6335 16.6083 14.2169 16.6166 14.1002 16.6166ZM12.4252 18.3333C12.3919 18.3333 12.3502 18.325 12.3169 18.3166C10.9919 17.95 10.1252 17.4583 9.21686 16.5666C8.05019 15.4083 7.40852 13.8666 7.40852 12.2166C7.40852 10.8666 8.55852 9.76663 9.97519 9.76663C11.3919 9.76663 12.5419 10.8666 12.5419 12.2166C12.5419 13.1083 13.3169 13.8333 14.2752 13.8333C15.2335 13.8333 16.0085 13.1083 16.0085 12.2166C16.0085 9.07496 13.3002 6.52496 9.96686 6.52496C7.60019 6.52496 5.43352 7.84163 4.45852 9.88329C4.13352 10.5583 3.96686 11.35 3.96686 12.2166C3.96686 12.8666 4.02519 13.8916 4.52519 15.225C4.60852 15.4416 4.50019 15.6833 4.28352 15.7583C4.06686 15.8416 3.82519 15.725 3.75019 15.5166C3.34186 14.425 3.14186 13.3416 3.14186 12.2166C3.14186 11.2166 3.33352 10.3083 3.70852 9.51663C4.81686 7.19163 7.27519 5.68329 9.96686 5.68329C13.7585 5.68329 16.8419 8.60829 16.8419 12.2083C16.8419 13.5583 15.6919 14.6583 14.2752 14.6583C12.8585 14.6583 11.7085 13.5583 11.7085 12.2083C11.7085 11.3166 10.9335 10.5916 9.97519 10.5916C9.01686 10.5916 8.24186 11.3166 8.24186 12.2083C8.24186 13.6333 8.79186 14.9666 9.80019 15.9666C10.5919 16.75 11.3502 17.1833 12.5252 17.5083C12.7502 17.5666 12.8752 17.8 12.8169 18.0166C12.7752 18.2083 12.6002 18.3333 12.4252 18.3333Z" fill="#6B6F76"/>
</svg>
