<svg width="523" height="57" viewBox="0 0 523 57" fill="none" xmlns="http://www.w3.org/2000/svg">
<path d="M88.8786 27.867L86.0438 22.9461L76.416 6.27579L74.3478 2.69213C73.9912 2.0681 73.3316 1.69369 72.6006 1.69369H43.5389C42.8258 1.69369 42.1661 2.08593 41.7917 2.69213L39.4739 6.7037L29.2934 24.3368C29.0973 24.6755 28.6694 24.8538 28.295 24.7469C27.9027 24.6399 27.6353 24.2833 27.6353 23.8911V15.5113C27.6353 7.89825 21.4307 1.69369 13.8176 1.69369H2.0147C0.909292 1.69369 0 2.60298 0 3.70839V15.5113C0 21.0206 3.28058 25.9414 8.36191 28.0631C8.70066 28.2057 8.91461 28.5267 8.91461 28.8832C8.91461 29.2398 8.70066 29.5607 8.36191 29.7034C3.31624 31.8072 0.0356584 36.6924 0 42.166V42.2195V50.8488V54.0403C0 55.1457 0.909292 56.055 2.0147 56.055H13.8176C21.4307 56.055 27.6353 49.8504 27.6353 42.2373V33.8576C27.6353 33.4475 27.9027 33.0909 28.295 33.0018C28.3663 32.984 28.4554 32.9661 28.5267 32.9661C28.8477 32.9661 29.1329 33.1444 29.2934 33.4119L40.1157 52.1682L41.7738 55.0387C42.1304 55.6627 42.7901 56.0371 43.5211 56.0371H72.6006C73.3137 56.0371 73.9912 55.6449 74.3478 55.0387L77.4323 49.7078L84.6709 37.1738L84.7779 36.9955L88.0941 31.2367L88.8965 29.846C89.2352 29.2577 89.2352 28.491 88.8786 27.867ZM58.2837 39.4381C52.614 39.4381 47.9962 34.6956 47.9962 28.8832C47.9962 23.0531 52.614 18.3283 58.2837 18.3283C63.9534 18.3283 68.5712 23.0709 68.5712 28.8832C68.5712 34.6956 63.9534 39.4381 58.2837 39.4381Z" fill="white"/>
<path d="M219.621 0.302958C202.558 0.302958 190.648 12.7478 190.648 28.6514C190.648 44.5551 202.558 56.9999 219.621 56.9999C236.683 56.9999 248.593 44.5551 248.593 28.6514C248.593 12.7478 236.683 0.302958 219.621 0.302958ZM220.138 48.3349C213.166 48.5132 209.012 41.952 208.691 29.0615C208.317 14.8694 212.15 9.14625 219.032 8.96796C226.182 8.78966 230.211 14.388 230.585 28.4909C230.906 41.4706 227.18 48.1566 220.138 48.3349Z" fill="white"/>
<path d="M128.602 1.24796H106.048C104.8 1.24796 104.015 2.03244 104.015 3.28049V6.25797C104.015 7.59516 104.479 8.05872 105.656 8.52228L107.135 9.07498C108.776 9.699 109.328 10.5548 109.328 12.2842V45.0187C109.328 46.7481 108.776 47.6039 107.135 48.2279L105.656 48.7806C104.479 49.2442 104.015 49.7256 104.015 51.0449V54.0224C104.015 55.2705 104.8 56.055 106.048 56.055H128.602C129.85 56.055 130.634 55.2705 130.634 54.0224V51.0449C130.634 49.7078 130.171 49.2442 128.994 48.7806L127.514 48.2279C125.874 47.6039 125.321 46.7481 125.321 45.0187V12.2842C125.321 10.5548 125.874 9.699 127.514 9.07498L128.994 8.52228C130.171 8.05872 130.634 7.57733 130.634 6.25797V3.28049C130.634 2.03244 129.85 1.24796 128.602 1.24796Z" fill="white"/>
<path d="M188.865 48.852L188.009 48.3884C185.887 47.2117 184.336 46.3559 182.286 43.1466L174.922 31.3259C174.53 30.7018 174.762 30.2204 175.475 30.0778C181.662 28.4375 185.192 24.836 185.192 18.4175C185.192 6.29364 175.742 1.2658 155.524 1.2658L137.57 1.42627C136.322 1.58673 135.698 2.28207 135.698 3.4588V6.43627C135.698 7.77346 136.161 8.23702 137.178 8.62926L138.978 9.34243C140.458 9.96646 141.011 10.7509 141.011 12.3199V45.0543C141.011 46.7838 140.458 47.6396 138.818 48.2636L137.338 48.8163C136.161 49.2799 135.698 49.7613 135.698 51.0806V54.0581C135.698 55.3061 136.482 56.0906 137.73 56.0906H160.284C161.622 56.0906 162.317 55.3061 162.317 54.0581V51.0806C162.317 49.7434 161.853 49.2799 160.677 48.8163L159.197 48.2636C157.557 47.6396 157.004 46.7838 157.004 45.0543V32.9127C157.004 32.2173 157.236 31.9677 157.788 31.9677C158.412 31.9677 158.805 32.4313 159.357 33.3762L170.09 52.7922C171.428 55.217 172.444 56.0728 175.172 56.0728H188.882C190.22 56.0728 190.754 55.3596 190.754 54.3434V51.5085C190.754 50.2605 190.362 49.7078 188.865 48.852ZM159.892 25.3709H158.163C157.521 25.3709 157.057 24.9073 157.057 24.2655V9.30678C157.057 8.66492 157.521 8.20137 158.163 8.20137H159.963C166.061 8.20137 169.823 10.4122 169.823 16.5276C169.841 22.643 166.917 25.3531 159.892 25.3709Z" fill="white"/>
<path d="M518.883 9.07498L520.363 8.52228C521.54 8.05872 522.003 7.57733 522.003 6.25797V3.28049C522.003 2.03244 521.29 1.24796 519.971 1.24796H497.417C496.169 1.24796 495.384 2.03244 495.384 3.28049V6.25797C495.384 7.59516 495.848 8.05872 497.025 8.52228L498.504 9.07498C500.145 9.699 500.697 10.5548 500.697 12.2842V22.1438C500.697 22.6965 500.305 23.0887 499.752 23.0887H483.153C482.601 23.0887 482.208 22.6965 482.208 22.1438V12.2842C482.208 10.5548 482.761 9.699 484.402 9.07498L485.881 8.52228C487.058 8.05872 487.522 7.57733 487.522 6.25797V3.28049C487.522 2.03244 486.808 1.24796 485.489 1.24796H462.935C461.687 1.24796 460.903 2.03244 460.903 3.28049V6.25797C460.903 7.59516 461.366 8.05872 462.543 8.52228L464.023 9.07498C465.663 9.699 466.216 10.5548 466.216 12.2842V45.0187C466.216 46.7481 465.663 47.6039 464.023 48.2279L462.543 48.7806C461.366 49.2442 460.903 49.7256 460.903 51.0449V54.0224C460.903 55.2705 461.687 56.055 462.935 56.055H485.489C486.826 56.055 487.522 55.2705 487.522 54.0224V51.0449C487.522 49.7078 487.058 49.2442 485.881 48.7806L484.402 48.2279C482.761 47.6039 482.208 46.7481 482.208 45.0187V32.0212C482.208 31.4685 482.601 31.0762 483.153 31.0762H499.752C500.305 31.0762 500.697 31.4685 500.697 32.0212V45.0187C500.697 46.7481 500.145 47.6039 498.504 48.2279L497.025 48.7806C495.848 49.2442 495.384 49.7256 495.384 51.0449V54.0224C495.384 55.2705 496.169 56.055 497.417 56.055H519.971C521.308 56.055 522.003 55.2705 522.003 54.0224V51.0449C522.003 49.7078 521.54 49.2442 520.363 48.7806L518.883 48.2279C517.243 47.6039 516.69 46.7481 516.69 45.0187V12.2842C516.69 10.5548 517.225 9.699 518.883 9.07498Z" fill="white"/>
<path d="M440.578 21.2881L431.021 18.471C426.315 17.0625 423.818 15.4222 423.818 12.6765C423.818 10.02 426.332 8.32622 430.166 8.29057C435.55 8.25491 440.346 10.7153 447.246 18.1501C448.191 19.1664 449.207 19.5586 450.616 18.7741L452.256 17.8292C453.665 17.0447 453.878 15.8858 453.201 14.6913L446.355 2.87048C445.57 1.4798 445.017 0.517028 443.377 0.517028H442.628C440.756 0.517028 440.507 1.37283 438.634 1.37283C436.21 1.37283 433.607 0.427883 429.167 0.427883C416.865 0.427883 408.878 6.38284 408.878 16.8664C408.878 25.6384 415.225 30.5771 423.052 33.1623L433.232 36.532C438.242 38.1723 440.899 40.0622 440.899 43.5033C440.899 47.1761 438.082 48.8342 433.464 48.8342C426.421 48.8342 420.306 44.8404 413.888 36.3894C412.871 35.0522 411.855 34.8204 410.518 35.4445L407.933 36.6925C406.756 37.2452 406.435 38.4219 407.148 39.9018L414.351 54.7C415.011 56.0372 415.92 56.5721 417.008 56.5721H417.935C419.664 56.5721 420.841 55.3953 422.392 55.3953C425.298 55.3953 428.187 56.8039 434.694 56.8039C447.692 56.8039 456.927 50.7776 456.927 39.1886C456.945 28.4911 449.813 23.9446 440.578 21.2881Z" fill="white"/>
<path d="M400.926 1.24796H378.372C377.124 1.24796 376.339 2.03244 376.339 3.28049V6.25797C376.339 7.59516 376.803 8.05872 377.979 8.52228L379.459 9.07498C381.1 9.699 381.652 10.5548 381.652 12.2842V45.0187C381.652 46.7481 381.1 47.6039 379.459 48.2279L377.979 48.7806C376.803 49.2442 376.339 49.7256 376.339 51.0449V54.0224C376.339 55.2705 377.124 56.055 378.372 56.055H400.926C402.174 56.055 402.958 55.2705 402.958 54.0224V51.0449C402.958 49.7078 402.495 49.2442 401.318 48.7806L399.838 48.2279C398.198 47.6039 397.645 46.7481 397.645 45.0187V12.2842C397.645 10.5548 398.198 9.699 399.838 9.07498L401.318 8.52228C402.495 8.05872 402.958 7.57733 402.958 6.25797V3.28049C402.958 2.03244 402.192 1.24796 400.926 1.24796Z" fill="white"/>
<path d="M366.908 1.47983C366.391 0.570538 365.892 0 364.715 0H363.164C362.308 0 361.826 0.196124 361.167 0.713171C360.454 1.26588 359.847 1.26588 358.314 1.26588H329.145C327.897 1.26588 327.113 2.05036 327.113 3.29841V6.27588C327.113 7.61307 327.577 8.07663 328.753 8.54019L330.233 9.0929C331.873 9.71692 332.426 10.5727 332.426 12.3022V45.0366C332.426 46.766 331.873 47.6218 330.233 48.2458L328.753 48.7985C327.577 49.2621 327.113 49.7435 327.113 51.0629V54.0403C327.113 55.2884 327.897 56.0729 329.145 56.0729H352.787C354.124 56.0729 354.82 55.2884 354.82 54.0403V51.0629C354.82 49.7257 354.427 49.1016 353.179 48.7985L350.594 48.0854C348.865 47.6218 348.401 46.7482 348.401 45.0366V31.2546C348.401 30.7019 348.793 30.3097 349.346 30.3097H350.683C356.799 30.3097 360.543 33.4476 364.394 37.9049C364.947 38.5289 365.642 38.7607 366.587 38.2972L368.548 37.2809C369.404 36.8173 369.725 36.0507 369.333 35.2484L363.271 22.7857C362.932 22.0726 362.486 21.6447 361.595 21.6447H360.632C359.972 21.6447 359.544 21.823 358.956 22.3043C358.421 22.7322 357.761 23.0175 356.923 23.0175H349.382C348.829 23.0175 348.437 22.6253 348.437 22.0726V12.0526C348.437 9.23554 349.524 8.13012 352.502 8.13012C357.601 8.13012 364.554 12.5874 368.637 16.6703C369.35 17.3657 370.206 17.5261 371.151 16.9912L373.273 15.6541C373.986 15.1905 374.45 14.4417 373.986 13.6215L366.908 1.47983Z" fill="white"/>
<path d="M305.717 49.476L303.917 48.852C302.276 48.2993 301.724 47.3721 301.724 45.6427V11.5889C301.724 9.85947 302.276 9.00366 303.917 8.37964L305.396 7.82694C306.573 7.36338 307.037 6.88199 307.037 5.56263V3.29832C307.037 2.05027 306.323 1.26579 305.004 1.26579H289.974C288.726 1.26579 287.942 2.05027 287.942 3.29832V5.56263C287.942 6.89982 288.405 7.36338 289.582 7.82694L291.062 8.37964C292.702 9.00366 293.255 9.85947 293.255 11.5889V30.7731C293.255 31.0941 292.987 31.3615 292.666 31.3615C292.488 31.3615 292.328 31.2724 292.221 31.1475L272.234 3.13786C271.735 2.3712 271.236 1.87198 270.701 1.62237C270.184 1.37276 269.453 1.24796 268.543 1.24796H253.62C252.372 1.24796 251.588 2.03244 251.588 3.28049V6.25797C251.588 7.59516 252.051 8.05872 253.228 8.52228L254.708 9.07498C256.348 9.699 256.901 10.5548 256.901 12.2842V45.714C256.901 47.4434 256.348 48.2992 254.708 48.9233L253.228 49.476C252.051 49.9395 251.588 50.4209 251.588 51.7403V54.0046C251.588 55.2526 252.372 56.0371 253.62 56.0371H268.65C269.988 56.0371 270.683 55.2526 270.683 54.0046V51.7403C270.683 50.4031 270.219 49.9395 269.043 49.476L267.563 48.9233C265.922 48.2992 265.37 47.4434 265.37 45.714V24.1407C265.37 23.8197 265.637 23.5523 265.958 23.5523C266.136 23.5523 266.297 23.6414 266.404 23.7663L288.53 54.1829C289.029 54.9317 289.528 55.4488 290.063 55.6984C290.58 55.948 291.311 56.0728 292.221 56.0728H305.307C306.644 56.0728 307.34 55.2883 307.34 54.0403V51.7759C307.358 50.4209 306.894 49.8682 305.717 49.476Z" fill="white"/>
</svg>
